<svg version="1.0" xmlns="http://www.w3.org/2000/svg" width="893.333" height="893.333" viewBox="0 0 670 670"><path d="M0 335v335h670V0H0v335zM289.5 81c-.3 1.7.2 2 3.1 2 2.2 0 3.7-.6 4-1.5.4-1 1.9-1.5 4.3-1.5 2.3 0 3.1.3 2.3.9-1 .6-.8 1 1 1.4 1.2.4 2.5.2 2.6-.3.2-.6 1.1-1 2-1 1.5 0 1.5.2.2 1.1-1.2.8-.9.9 1.2.5 1.5-.3 2.9-.2 3.2.3.3.4 3 1.1 5.9 1.4 3 .3 6.3 1 7.3 1.5 2.4 1.3 5.3 2.4 7.8 2.9 1 .2 3.2 1.3 4.9 2.5 1.7 1.2 2.7 1.7 2.3 1-.8-1.4.6-1.6 2-.3 1.8 1.8 8.1 4.9 11.2 5.6 2 .4 3 1.1 2.5 1.8-.4.6 0 .8.9.4 1-.3 1.8.1 2.1 1.2.2 1 1.7 2.1 3.2 2.5 3 .8 9.5 7.1 9.5 9.2 0 .8 1.1 1.4 2.5 1.4 2.6 0 9.5 5.6 9.5 7.7 0 .7 1.5 2.4 3.4 3.8 1.9 1.5 3.8 3.9 4.1 5.5.4 1.7 1.4 3 2.8 3.4 1.1.3 1.8.8 1.4 1.2-.4.4-.2 1.3.4 2.1.6.7.9 1.3.5 1.3-.3 0 .8 1.4 2.6 3.1 1.8 1.7 2.7 2.8 2.1 2.4-.7-.3-1.3-.1-1.3.4 0 .6.6 1.1 1.3 1.1 1.7 0 3.8 4.8 2.3 5.4-.6.2-.3.5.6.5.9.1 2 .6 2.4 1.3.4.6.3.8-.4.5-.6-.5-.6.2.1 1.8.7 1.4 1.5 2.5 2 2.5.4 0 .7.9.7 1.9 0 1.1.5 2.3 1 2.6.6.4.8 1.1.5 1.6-.4.5-.2.9.3.9.6 0 1.3 1.7 1.7 3.7.4 2 1.5 5.3 2.5 7.3s2.9 6.8 4.1 10.6c1.2 3.8 2.4 7.3 2.8 7.9.3.5.6 2.6.7 4.5 0 1.9.3 4.4.7 5.5 4.5 13.6 5.3 55.6 1.2 60.5-1.5 1.8-3.7 8.1-3.1 8.8.3.2 1.2-1.1 2-2.9.8-1.9 1.5-2.6 1.5-1.7.1.9-.8 3.2-1.9 5-1.1 1.9-2.2 6-2.5 9.3-1 12-1.8 15.9-4.1 20.3-1.3 2.4-2.1 4.8-1.9 5.2.3.5.1 1-.5 1.2-1.4.4-4.1 9.8-2.8 9.8.6 0 .5.7-.2 1.6-1.4 1.6-2 14.4-.7 14.4.4 0 .7 1.8.7 4.1 0 3.4-.6 4.6-3.7 7.4-2.1 1.9-5 4-6.6 4.6-1.5.7-2.6 1.7-2.3 2.4.2.7-.2 2.2-.9 3.3-.8 1-1.1 2.2-.8 2.6.3.3.1.6-.6.6-1.8 0-5.9 5-7.2 8.8-.9 2.6-2.2 3.9-6 5.7-2.7 1.2-4.6 2.5-4.2 2.9.3.3-.6.6-2 .6-1.5 0-2.7.4-2.7.8 0 .5-1.1 1.5-2.5 2.2-1.3.7-2.2 1.7-1.9 2.1.3.5-.7 2-2.1 3.3-1.5 1.4-2.4 3-2 3.6.5.8 0 .8-1.6-.1-2.2-1.1-2.3-1.1-1 .5 1.2 1.4 1.2 1.6-.3 1-1.3-.5-1.2.5 1.1 5.6 2.6 6.1 2.6 6.3.8 7.6-1 .8-2.5 1.4-3.3 1.4-1.9 0-1.1 5.8 2.3 16.4 1.4 4.3 2.5 9.1 2.4 10.5 0 2.3-3.8-9.6-7-22.2l-1.2-4.7-4.8.3c-5.6.5-5.9.1-5.9-8.1 0-3.1-.4-5.2-.8-4.5-.8 1.3-7.7 2.1-8.8 1-.4-.4-3.1-.7-5.9-.7-5.5 0-18.5-2.9-22.4-4.9-1.2-.7-3-1-3.8-.7-1.4.6-4.5-.5-13.8-4.9-1.6-.8-5.7-2.1-9-2.8-5.6-1.3-9.9-3.3-16.3-7.5-1.6-1-2.3-1.2-1.8-.4.7 1.1.4 1.1-1.3.1-1.5-1-1.7-1.6-.8-2.2.8-.6.6-.7-.6-.3-2 .6-8.6-2.8-10.5-5.5-.7-1.1-2-1.9-2.9-1.9-3.1 0-8.3-2.4-8.8-4-.7-2.2-5.5-4.5-5.6-2.7 0 .6-.4.2-.9-.9-.5-1.2-2.2-2.8-3.9-3.5-1.6-.7-2.7-1.7-2.5-2.1.3-.4-.2-.5-1-.2-1.6.6-4.6-1.7-4.6-3.5 0-.6-.9-1.1-1.9-1.1-1 0-3.2-1.5-4.8-3.3-1.6-1.8-3.4-3.2-4-3-1.3.5-3.6-3.1-2.6-4.1.3-.3-.8-.9-2.5-1.2-2-.4-3.2-1.3-3.2-2.3 0-1.4-.2-1.4-1-.1-.7 1.2-1 1.2-1 .1 0-.7-1.1-2.6-2.5-4.3-1.4-1.6-2.5-3.5-2.5-4.3 0-.7-1-1.5-2.2-1.8-1.2-.4-1.9-.9-1.5-1.3.4-.4-.2-1.3-1.3-2.1-1.2-.8-1.7-2-1.3-3 .5-1.2.2-1.5-1-1-1.7.6-4.2-2.4-3-3.7.3-.3.1-.6-.6-.6s-.9-.5-.6-1c.3-.6.2-1-.4-1-.6 0-1.3-1.1-1.7-2.5-.4-1.4-.9-2.3-1.2-2-.9.9-4.2-4.8-4.2-7.3 0-1.5-.4-2.1-1.2-1.6-.7.5-.9.2-.5-.9.3-.8-.1-2.1-.9-2.7-.8-.7-1.4-2.2-1.4-3.4 0-1.2-.9-4-2.1-6.1-2.7-5.3-5-12.6-4.2-13.8.3-.6.1-.7-.4-.4-.7.4-.9-.8-.6-3.6.5-4.1-2.2-12.7-3.9-12.7-.5 0-.8-1.5-.8-3.3 0-1.7-.5-5.1-1-7.4-1.2-5.2-1.4-13-.5-16.3.4-1.4 1.1-8.4 1.6-15.5.4-7.2 1.3-15.5 1.8-18.5 1.9-10.3 7.7-27 9.3-27 .4 0 .8-1.2.8-2.8 0-1.5.9-3.5 2-4.5 1.1-.9 2-2.6 2-3.7s.5-2 1-2c.6 0 1-.8 1-1.8 0-.9.8-2.9 1.8-4.3 8.6-13.2 11.4-17 14.6-20.1 1.9-1.9 3.3-3.8 2.9-4.2-.4-.4 0-.4 1-.1 1.2.5 2-.1 2.8-1.9.7-1.4 1.8-2.6 2.4-2.6.7 0 2.3-1.3 3.6-3 1.3-1.6 3-3 3.7-3 .7 0 1.1-.4.8-.9-.5-.8 2.9-2.5 4.7-2.2.4.1.7-.4.7-.9 0-.6 1.2-1.5 2.6-2 1.4-.6 2.2-1.4 1.9-2-.3-.5.2-1 1.2-1s2.6-.8 3.5-1.9c.9-1.1 2.6-1.7 4.2-1.6 1.4.2 2.4-.2 2.3-.8-.1-.6.7-1.3 1.8-1.5 1.1-.2 2.4-1.1 3-1.8.5-.8 2.7-1.5 4.8-1.6 2.1-.1 3.3-.4 2.6-.8-1.5-1-.2-1.7 5.1-2.4 8.1-1.2 10-1.8 9.5-2.6-.7-1.1 6.1-2.3 8.7-1.4 1.1.3 1.8.2 1.5-.3-.3-.5 1.7-.9 4.6-.8 4 .1 5.5-.3 6.5-1.7.8-1.1 2.6-1.8 4.7-1.8 2.8 0 3.3.3 3 2zm6.5 0c0 .5-1 1-2.2 1-1.9 0-2-.2-.8-1 1.9-1.3 3-1.3 3 0zm76.4 385.5c.3 3.8.3 5.9 0 4.5-4.3-22.7-5.4-29.1-5.3-31.1.2-4 4.7 19 5.3 26.6zm4.7 39.4c1.1 7.8 1.8 14.6 1.5 14.9-.3.3-.6-.1-.6-.9s-1.2-8.6-2.5-17.4c-1.4-8.8-2.4-18-2.4-20.5.1-3.8.3-3.4 1.1 2.5.4 3.8 1.8 13.5 2.9 21.4zm2.6 24.3c-.3.7-.5.2-.5-1.2s.2-1.9.5-1.3c.2.7.2 1.9 0 2.5zm1 5c-.3.8-.6.5-.6-.6-.1-1.1.2-1.7.5-1.3.3.3.4 1.2.1 1.9z"/><path d="M301 123c-.9 1.6-.8 1.8.5 1.4.8-.4 1.5-1.2 1.5-2 0-2-.7-1.7-2 .6zM304.6 122.7c.5.5 1.2 1.2 1.6 1.8.4.6.8.2.8-.8 0-.9-.7-1.7-1.7-1.7-.9 0-1.2.3-.7.7zM295.6 124.7c-.3.4-.1 1.2.4 1.8.8.9.6 1.4-.6 1.9-.9.3-1.4 1.3-1 2.1.6 1.6-3.7 6.5-5.7 6.5-.7.1-.3.8.8 1.8 2 1.6 3.2 6.2 1.6 6.2-.4 0-.5 1.6-.3 3.7.4 3 .2 3.5-1.2 3-1.4-.6-1.5-.3-.6 1.3.8 1.5.8 2-.2 2-.8 0-.9.3-.3.8.6.4.9 1.4.9 2.2-.1.8-.2 2.3-.3 3.4-.1 1.4-.7 1.7-2.6 1.4-1.4-.3-2.5-.2-2.5.2 0 1.5 7.1 1.6 9.1.2 2.6-1.8 3.7-.8 1.5 1.4-1 .9-1.5 2.3-1.2 3.1.3.8.6 1.7.6 1.9 0 .2.7.4 1.5.4.9 0 1.2-.6.8-1.8-.6-1.5-.4-1.5 1.5.2 2.2 1.9 2.6 1.6 2.3-1.6-.1-.9.6-1.9 1.6-2.1 1-.2.3-.3-1.5-.1-1.8.1-3-.1-2.7-.7.4-.5 1.7-.9 3.1-.9 1.4 0 2.3-.4 1.9-.9-.5-.9.7-.7 8 1.7 9.6 3.2 10.9 3.5 11.3 2.3.3-.9.8-.9 1.7-.1.7.6 1.9.9 2.6.8.8-.2 1.4.3 1.3.9-.1.7-.2 2-.2 2.9-.1 1-.8 1.4-1.7 1-1.1-.4-1.5.1-1.5 1.9 0 1.8-.5 2.5-1.9 2.5-1.1 0-2.2-.6-2.4-1.3-.3-.7-.6-.5-.6.5-.1 1-.6 1.8-1.1 1.8-1 0 .8 4 2.3 5.1.5.4.7 1.8.6 3.1-.2 1.4.2 3.2 1 4.1.7.9 1.4 2.7 1.5 4.1 0 1.3.4 2.2.7 2 .4-.2 1 .7 1.3 2.1.4 1.4 1.2 2.5 1.9 2.5 1.8.1 5 4.9 4.3 6.7-.4 1-.2 1.4.8 1 .7-.3 1.9 0 2.6.6 1 .9 1.1.9.6-.1-.4-.7-.1-1.2.7-1.2.8 0 1.7.7 2.1 1.5.3.9 1.2 1.2 2.2.8.9-.3 2 0 2.4.7.7 1.1 1.1 1.1 2.3.1 1.3-1 1.6-.7 2.2 1.9.5 2.5 1.1 3.1 2.6 2.7 1.9-.5 2.2 1.2.4 2.5-.6.5-.4.8.4.8 2.1 0 4-3.1 4.1-6.8 0-1.7.5-3.2 1-3.2.6 0 1-.7 1-1.5s.5-1.5 1.1-1.5c.5 0 .7-.5.4-1-.4-.6-.1-1.7.5-2.5 1-1.2 1-1.5 0-1.5-.8 0-1-.3-.7-.7.4-.3 1.5.1 2.5 1 1 1 2.2 1.4 2.5 1 .4-.3 1.7.3 3 1.4 1.2 1.1 3.1 1.9 4.2 1.7 1.1-.1 2.3.2 2.7.9.5.7.8.3.8-1.2 0-1.3 1.1-3.9 2.5-5.7 2.8-3.7 3-4.9 1-8.4-1.2-2.2-1.4-2.3-2-.8-1.1 2.8-2.5 2.1-2.5-1.2 0-1.7.5-3 1-3 .6 0 1-.7 1-1.5s.9-1.5 2-1.5c4.2 0 .3-4.3-5-5.5-3.1-.7-3.5-1.2-5.8-8.4-.8-2.5-.9-3.7-.1-4.2.7-.4.5-.9-.6-1.2-1.1-.5-1.4-.3-1 .6.4.6 0 .3-.9-.7-1.4-1.7-1.6-1.7-2.2-.3-.3.9-1.1 1.4-1.8 1-.6-.4-.5.1.3 1 1.2 1.5 1.1 1.7-.3 1.7-.9 0-1.6-.5-1.6-1.1 0-.8-.5-.8-1.5.1-.8.7-1.5 1.9-1.5 2.6 0 2.2-1.5 1.6-3-1.1-.7-1.4-1.9-2.5-2.6-2.5-.7 0-1.8-1-2.5-2.1-.9-1.7-1.3-1.9-2-.8-1 1.6-1 1.4-1.4-2.1-.1-1.4.2-2.8.9-3.3.8-.5.6-1.1-.6-2.1-1.9-1.4-2.5-3.2-.7-2.1.5.4.3-1-.6-3-1.1-2.7-1.2-4.1-.4-5.1.8-.9.1-2.3-2.9-5.3-2.2-2.3-4.5-4.1-5.1-4.1-.7 0-1.8-1.4-2.5-3.1-.8-2-1.6-2.7-2-2-.4.7-1.6.9-2.7.6-1.5-.5-1.9-.1-1.9 1.5 0 2.9-1.9 6.2-3.1 5.5-.5-.4-.9-1.8-.9-3.3 0-4.3-1.2-5.2-6.3-5-2.6.1-4.7.6-4.7 1s-.7.8-1.6.8c-1 0-1.4-.5-1-1.5.4-1.2.2-1.4-1-.7-2.1 1.2-7.4.3-7.4-1.3 0-1.4-2.5-2.7-3.4-1.8zm22.3 30.5c-1.5 2.8-2.4.9-1.4-3 .6-2.3.8-2.4 1.6-.9.7 1.1.6 2.4-.2 3.9zm-21.2 3.4c-.3.3-1.2.4-1.9.1-.8-.3-.5-.6.6-.6 1.1-.1 1.7.2 1.3.5zm38.3 10.5c0 .5-.9.9-2 .9-1.9 0-2.6-1.1-1.4-2.3.8-.8 3.4.3 3.4 1.4zm39.2 25.8c.2 1.7.1 2.8-.4 2.5-.8-.5-1.2-5.4-.4-5.4.2 0 .6 1.3.8 2.9zm-9.4 1.3c1.6 1.6 1.5 2.8-.3 2.8-.8 0-1.5-.2-1.5-.4s-.3-1.1-.6-2c-.7-1.9.7-2.1 2.4-.4zm-9.8 5.3c0 .9-.6 1.2-1.5.9-.8-.4-1.5-1-1.5-1.5s.7-.9 1.5-.9 1.5.7 1.5 1.5zm-3.2 9.7c-1.6 3.2-2.6 1.9-1.5-1.8.9-2.9 1.2-3.3 1.8-1.8.3 1.1.2 2.7-.3 3.6zM251 128.8c0 2.5-3 4.4-7.5 4.8-2.8.3-5.4.9-5.8 1.3-.5.5-2.6.4-4.7-.1-4.8-1.2-9.8.6-10.6 3.9-.5 1.7-1.3 2.3-3.5 2.3-4.1 0-4 3.4.2 4.9l3.1 1.1-1.7 2.7c-1 1.5-1.8 3.8-1.9 5.2-.1 3.1-2.5 4-3.3 1.2-.6-2.3-1.8-2.7-2.8-1.1-.5.8-1.1.7-2.1-.1-1.1-.9-1.4-.8-1.4.4 0 .9.5 1.9 1 2.2.6.3 1 1.5 1 2.6 0 1 .5 1.9 1 1.9.6 0 1 .6 1 1.3 0 .7.8 1.3 1.9 1.3 1.1 0 1.7-.5 1.4-1.3-.5-1.3 4-6.3 5.6-6.3 1.7 0-.2 6.2-2.2 6.9-1.9.7-1.9.9.9 3.4 1.6 1.5 3.2 2.7 3.6 2.7.5 0 .8.4.8 1 0 .5-.7 1-1.5 1-1.5 0-2.1 2.1-1 3.2.7.7 5.5-1.4 5.5-2.5 0-.4.8-.7 1.8-.7 1.6-.1 1.6-.1 0-1.4-1.4-1-1.8-2.8-1.8-7.2 0-4.2.3-5.5 1-4.4.6.8.7 3.5.3 6-.5 4.1-.5 4.4 1 3.1 1-.7 1.7-1 1.7-.6s.7.2 1.5-.5c.9-.8 1.2-2.2.8-4.3-.8-4.3.9-2.6 2.3 2.4.8 2.7.9 3.9.1 3.9-.6 0-.8.2-.5.5.3.3 1.3.2 2.2-.1 1.2-.5 1.6-1.4 1.3-3.1-.4-2-.1-2.3 1.7-1.7 2.6.8 3.6 2.3 2.9 4.1-.3.8 0 1.3.8 1.1.8-.2 1.6-1.4 1.9-2.8.3-1.4 1.5-2.9 2.8-3.5 1.2-.5 2.2-1.5 2.2-2.2 0-.7.5-1.3 1-1.3.7 0 .7.6 0 1.9-.5 1.1-1 3.3-1 5 0 2.4.4 3.1 2 3.1 1.3 0 2-.7 2-2 0-1.2.7-2 1.8-2 2.3-.1 5.7-3 6.4-5.6.9-3.5-.9-5.6-4.2-4.9-2.3.5-3.1.2-4-1.4-.6-1.2-1.7-2.1-2.5-2.1-.7 0-1.7-.9-2-2-.3-1.1-1.1-2-1.6-2s-.9-.7-.9-1.5.4-1.5.9-1.5 1.5-1.6 2.2-3.5c1.2-3.3 2.9-4.7 2.9-2.5 0 .5.5 1 1.1 1 .5 0 .7-.5.4-1-.3-.6-.1-1 .4-1 .6 0 1.1-.7 1.1-1.5s.9-1.9 1.9-2.5c1.4-.7 1.7-1.6 1.3-3.2-.3-1.2-.7-1.7-1-1-.5 1.6-2 1.5-3.8-.3-1.6-1.6-5.4-2.1-5.4-.7zm-17 15.9c0 2-.3 2.4-1.1 1.6-.7-.7-.9-1.9-.6-2.7 1-2.4 1.7-1.9 1.7 1.1zm12.6 1.8c.9 2.3-1.5 4.5-4.8 4.5-2.5 0-2.9-.4-2.6-2.2.2-1.4 1.3-2.5 2.8-2.9 3.8-1.1 4-1 4.6.6zm-20.4 11.7c-.7.7-1.2.8-1.2.2 0-1.4 1.2-2.6 1.9-1.9.2.3-.1 1.1-.7 1.7zm.8 7.4c0 .8-.7 1.4-1.5 1.4s-1.5-.9-1.5-2c0-1.3.5-1.8 1.5-1.4.8.4 1.5 1.2 1.5 2zM273.6 143.9c-.7 1 1.9 3.4 3.9 3.7 2.5.4 2.4-2.3-.1-3.5-3-1.3-3.1-1.3-3.8-.2zM272.6 147.5c-.3.8-.1 1.5.4 1.5 1.3 0 2.2-1.8 1.1-2.4-.5-.3-1.1.1-1.5.9z"/><path d="M355.1 162.6c0 1.1.3 1.4.6.6.3-.7.2-1.6-.1-1.9-.3-.4-.6.2-.5 1.3zM303.8 165.7c-2.1.5-2.4 2.3-.5 2.3.7 0 2.2.7 3.3 1.5 1.9 1.4 1.8 1.4-.2.9-2.5-.6-2.7 1.6-.6 5.4.7 1.2.9 2.2.5 2.1-2-.3-3.4.2-5.3 2.1l-2 2v-3c0-2-.5-3-1.5-3-.9 0-1.8-.8-2.2-1.8-.3-.9-1.7-2.9-3.2-4.3-2.5-2.4-2.7-2.5-5.4-1-2.6 1.5-2.9 1.5-4.1-.2-1.3-1.7-1.4-1.6-1.9.2-.3 1.4-1.1 1.8-2.5 1.4-1.4-.3-2.4.2-3.1 1.6-.8 1.4-.8 2.1-.1 2.1.5 0 1 .4 1 1 0 .5-.7 1-1.6 1-1.4 0-1.4.1 0 1.6.9.8 1.4 2 1.1 2.5-1 1.6 1.5 4.9 3.8 4.9 1.2 0 3.6.7 5.2 1.6 1.7.9 5.3 1.8 8.1 2 4.7.3 5.3 0 9.6-4 3-2.7 5.1-5.8 5.9-8.4.8-3 1.8-4.2 3.1-4.2 2.2 0 2.3-1.3.3-3-.8-.7-1.5-1.9-1.5-2.6 0-1.4-2.6-1.7-6.2-.7zm5.5 1.7c.4 1 .1 1.3-.9.9-1.5-.6-1.9-2.3-.5-2.3.5 0 1.1.7 1.4 1.4zM214.6 169.5c-.3.9-.6 2.2-.5 2.8 0 .7.5.1 1-1.2s.8-2.6.5-2.8c-.2-.2-.6.3-1 1.2zM231 168.9c0 1 1.9 2.5 2.5 2 .1-.2-.3-1-1.1-1.7s-1.4-.8-1.4-.3zM241.5 169.9c-.3.5-.1 1.2.5 1.6.5.3 1-.1 1-.9 0-1.8-.6-2.1-1.5-.7zM314.6 171.7c-1.1 1.1-.6 2.3.9 2.3.8 0 1.5-.4 1.5-.9 0-1.3-1.6-2.2-2.4-1.4zM203 172.7c0 .4.5 1.5 1 2.3.8 1.3 1 1.3 1-.2 0-.9-.4-2-1-2.3-.5-.3-1-.3-1 .2zM200.7 175.5c-.8 2-.4 2.9 1.1 2.4.5-.2.6-1.3.2-2.3-.6-1.9-.7-1.9-1.3-.1zM211 175.1c0 .5.5.7 1 .4.6-.3 1-.8 1-1.1 0-.2-.4-.4-1-.4-.5 0-1 .5-1 1.1zM250 175c-1.5 1-1.1 1.1 5.4 1.4 2.2.2 3.2 2.1 1.7 3.1-.7.4-.8 0-.4-1.1.4-1.2.3-1.5-.5-1-1.7 1-1.5 2.3.9 4.5 1.7 1.6 1.9 2.3 1 4-.7 1.2-1.5 2.1-1.9 2.1-.4 0-1.3.9-2 2.1-1.1 1.8-1.1 2.4.4 4 1.5 1.7 1.5 1.9.1 1.9-1.9 0-4.7 2.7-4.6 4.3 0 .9.2.8.6-.1.7-1.7 2-1.5 2.7.4.3.8.2 1.2-.4.9-1.5-.9-1.2.8.7 3.5 1.6 2.2 1.6 2.3 0 1.7-1.2-.5-1.7-.1-1.7 1.3 0 1 .5 2.2 1 2.5.6.4.8 1 .5 1.5-.3.4.2 1.1 1.1 1.4 2.5.9 5.4.7 5.4-.5 0-.5.5-.7 1.1-.3.8.5 1-.1.6-1.8-.6-2.1-.3-2.7 1.4-3.1 1.5-.4 1.9-.2 1.5.9-.4 1 .2 1.4 1.9 1.4 1.3 0 2.7.5 3.1 1.2.5.8 1.1.2 1.6-1.7.9-3.6-.7-5.8-3.9-5.2-1.3.2-2.6 0-2.9-.4-.3-.5-.1-.9.5-.9 1.2 0 .7-8.3-.5-8.7-4.3-1.5-4.1-4.3.4-3.9 1.6.2 3.3-.4 4.2-1.4.8-.9 2.5-2 3.8-2.4 1.8-.6 2.1-1.1 1.2-2.1-.7-.8-.9-1.9-.5-2.5 1.8-3-7.8-7.4-9.7-4.6-.5.7-1.1.8-1.5.1-2.4-3.1-9.2-4.5-12.3-2.5zM198 182.6c0 .6.6 2.4 1.4 3.8 1 2.1 1.5 2.3 1.9 1.1.4-.8.2-1.5-.3-1.5-1.9 0-1-2.1 1.3-3 1.2-.5 1.8-.9 1.2-1-4.2-.6-5.5-.5-5.5.6zM314.5 184c-.3.5-.1 1 .4 1 .6 0 1.1-.5 1.1-1 0-.6-.2-1-.4-1-.3 0-.8.4-1.1 1zM304.5 185c-.3.5-.1 1 .4 1 .6 0 1.1-.5 1.1-1 0-.6-.2-1-.4-1-.3 0-.8.4-1.1 1zM203.4 191.1c-.8.9-.9 2.8-.4 5.4.4 2.2.8 3.1.9 2 .1-1.7.3-1.8 1.1-.5.8 1.2 1 .9 1-1.2 0-1.4.3-2.8.8-3.1.4-.2.2-.2-.5-.1-.6.2-1.3-.7-1.5-1.8-.2-1.8-.5-1.9-1.4-.7zM390.7 196.9c-2.5 3-2.6 3-3 .8-.3-1.5-.5-1.2-.6 1.1-.1 2.2.3 3.1 1 2.6.7-.4.9 0 .5 1.3-.8 2.5 3 12.9 4.5 12.5 1.6-.4 2.9 1.7 2.9 4.5 0 3.1 1.7 2.9 2.3-.3.3-1.6 0-2.8-.9-3.1-.8-.3-1.1-1-.8-1.5.4-.6 1-.5 1.5.3.7 1.1.9 1.1.9.1 0-.7.4-1 1-.7.5.3.7 0 .4-.9-.3-.9.3-1.7 1.6-2.1 2.1-.7 2.2-.8 1-8.3 0-.1-.6-.2-1.3-.2-1.2 0-5.5-4.4-7.6-7.8-.6-1-1.4-.6-3.4 1.7zm5.3 9.6c0 .9-.9 1.5-2.2 1.5-2.1 0-2.1 0-.2-1.5 2.4-1.8 2.4-1.8 2.4 0zM243.5 195.9c-.6 1.1.9 2.3 1.9 1.4.9-.9.7-2.3-.3-2.3-.6 0-1.2.4-1.6.9z"/><path d="M239.7 201.2c-.2.7-.1 2.2.4 3.4.4 1.1.4 2.7-.1 3.4-1.1 1.8.9 6 2.9 6 .9 0 2.5.7 3.5 1.5 1.8 1.3 1.6 1.4-2 1-3-.4-3.5-.2-2.1.6.9.5 2.2.7 2.7.4.6-.3 1-.2 1 .3s.6.9 1.3.9c.6 0 2.1.4 3.2.8 1.6.5 1.7.5.5-.3-1.2-.9-1.1-1.4.8-3l2.2-1.9-2.6-1.1c-1.4-.7-3.1-1.2-3.8-1.2-2 0-3.7-2.5-3-4.4.3-.9 1.7-1.6 2.9-1.6 3.3 0 3.9-1.5 1.6-3.7-2.4-2.2-8.7-2.9-9.4-1.1zM383.1 203.3c-.8 1.5-1.7 2.7-2 2.7-.8 0-.4 9.6.4 11 1.2 2 2.2 0 1.9-3.7-.2-2.1.1-5 .7-6.5.6-1.4.9-3.4.7-4.4-.2-1.4-.6-1.2-1.7.9zM207 203.5c-1 1.2-1 1.5.2 1.5.8 0 1.5-.7 1.5-1.5s-.1-1.5-.2-1.5c-.2 0-.8.7-1.5 1.5zM210 203.6c0 .8.5 1.2 1 .9.6-.3 1-1 1-1.6 0-.5-.4-.9-1-.9-.5 0-1 .7-1 1.6z"/><path d="M247.2 209.2c.5 1.5 2.8 2.3 2.8 1 0-.5-.7-1.3-1.6-1.6-1-.4-1.4-.1-1.2.6zM275.4 210.3c-.3.8 0 2.6.6 4.2.8 2.2 1.3 2.6 2.3 1.6.9-.9.9-1.4-.3-2.1-.8-.6-1-1-.3-1 .6 0 .9-.9.6-2-.6-2.3-2.1-2.6-2.9-.7zM385.7 209.6c-1 1-.9 5.4.2 5.4 1.2 0 2.2-4.3 1.3-5.2-.5-.5-1.1-.5-1.5-.2zM212.4 214.6c.3.9.6 2 .6 2.6 0 1.9 2.3.2 2.7-2 .2-1.7-.2-2.2-1.8-2.2-1.5 0-1.9.4-1.5 1.6zM257.2 217c0 1.4.2 1.9.5 1.2.2-.6.2-1.8 0-2.5-.3-.6-.5-.1-.5 1.3zM201.5 217c.3.5.8 1 1.1 1 .2 0 .4-.5.4-1 0-.6-.5-1-1.1-1-.5 0-.7.4-.4 1zM201.8 219.7c.6.2 1.8.2 2.5 0 .6-.3.1-.5-1.3-.5-1.4 0-1.9.2-1.2.5zM207.3 222.7c-.1 2.1.3 4.3.9 5 1.6 2 .3 2.6-1.6.8-1.2-1.3-2.6-1.5-6.1-.9-2.5.3-4.8 1-5.1 1.5-.2.5 0 2.7.6 5 1.3 4.7.5 11.5-1.4 12.2-1 .4-1.4-1.3-1.5-6.6-.1-4-.4-8-.7-9-.9-2.7-2.4-2-2.4 1.2 0 1.6-.4 4.1-.9 5.5-.8 1.9-.6 3 1 5 1.1 1.4 1.8 3 1.5 3.5-.3.5.2 1.2 1.1 1.5 1.4.6 1.4.8-.3 2.1s-1.7 1.4-.2 1.5c1 0 2.2.9 2.8 1.9 1 1.9 1.1 1.9 3.9.3 3.6-2 4.3-1.4 4.3 3.2 0 1.9.6 4 1.4 4.7.8.6 1.4 1.7 1.4 2.4 0 1.4 3.5 3.3 7 3.7 1.7.2 2.6 1 2.8 2.6.2 1.2 1.1 2.8 2.1 3.4 1.7 1 1.7 1.2.2 2.8-1.5 1.5-1.8 1.5-3.9-.8-2.7-2.8-4.2-2.1-2.3 1 1.2 1.9 1.1 2.4-1 4.2-3.3 2.8-2.6 9.1 1.1 10.9 1.5.8 2.5 2.1 2.5 3.4.1 2.4 1.5 4.5 1.5 2.2.1-1 .5-.9 1.5.5.8 1 1.2 2.3.9 2.7-.3.5.5.9 1.7.9s2.8.8 3.6 1.7c.8 1 1.2 1.3.9.6-.4-.6-.2-1.4.4-1.8.5-.3 1-.1 1 .6s.3 1 .6.7c.3-.4.1-1.6-.6-2.7-.8-1.5-.8-2.1 0-2.1.6 0 .8-.5.5-1-.3-.6-.1-1 .4-1 1.7 0 1.3-1.5-1.3-4.3-1.3-1.4-2.7-4.2-3-6.2-.5-2.6-1.1-3.5-2.1-3.1-1.1.4-1.4-.2-1.3-1.9.1-1.4.8-2.5 1.5-2.5s1.3-.6 1.3-1.3c0-1.9 3.9-3.9 6.3-3.1 2.2.7 2.2.6.3-1.5-1.1-1.1-1.6-2.4-1.3-2.8.4-.3.7 0 .7.7s.2 1.1.5.8c.3-.3.1-1.7-.4-3.2-.7-1.8-.7-2.6 0-2.6.6 0 .9-1 .7-2.3-.2-1.3.2-2.1 1-1.9.6.1 1.2-.3 1.2-.9 0-.5.4-.8.9-.4.5.3 1.2.1 1.6-.5 1.2-1.9 3.5-1 4.1 1.7.4 1.6.9 3.2 1.2 3.7 1.1 2 .8 10.6-.4 10.6-.7 0-1.2.9-1.1 2 .2 2.9 1.3 2.5 2.9-1 1.5-3.5 2.8-3.9 2.8-.9 0 1.1.5 1.7 1 1.4.6-.3 1-.2 1 .3 0 .6.7 1.3 1.6 1.6 1.2.4 1.5.2 1-.9-.3-.9 0-1.5.9-1.5.8 0 1.5-.7 1.5-1.5s-.6-1.5-1.3-1.5c-.7 0-1.3-.9-1.4-2-.1-1.1.2-2 .8-2 .5 0 .9-.7.9-1.6 0-.8-.4-1.3-.9-.9-.5.3-1.3.1-1.6-.5-.9-1.5-4.8 3.7-3.9 5.2.5 1 .4 1-.5.2-1-.9-1-1.7.3-3.6 1.7-2.6 1.1-4-1.9-5.2-2-.8-2-.8-.1-1.9 1.1-.7 3-2.3 4.3-3.6 1.9-2 2.5-2.2 3.8-1.1 1.2 1 1.5 2.3 1 5.2-.4 2.4-.3 3.8.4 3.8.6 0 .8.6.5 1.4-.4 1.2.2 1.3 3.1.6 4.7-1.1 10.5-.2 10.5 1.6 0 .8.5 1.4 1 1.4.6 0 1 .7 1 1.5s-.4 1.5-1 1.5c-.5 0-1-.5-1-1.1 0-.5-.4-.8-.9-.5-.5.4-1.1.2-1.3-.3-.1-.4-1.2-1.1-2.3-1.5-1.5-.4-2.5.1-3.8 2.2-1.4 2.1-1.7 2.3-1.5.7.2-1.2-.4-2.1-1.4-2.3-1.5-.3-1.7.2-1.1 3 .3 1.8 1 3.4 1.5 3.6.4.2.8.8.8 1.3 0 .6-.4.7-1 .4-.5-.3-1-.1-1 .4 0 .6.6 1.1 1.3 1.1.7 0 1.8.9 2.5 2s1.9 2 2.7 2c.8 0 1.5.9 1.5 2 0 2.6-.1 2.5-5.2-.9-4.8-3.3-5.5-3.3-3.8-.1.7 1.2 1 3.4.7 4.8-.6 2.9.7 5.5 4.2 8.9 2.8 2.6 3.2 2.8 4.9 1.1 1-1 1.5-1 2.2.2.8 1.2 1 1.1 1-.7 0-1.6.6-2.1 2-2 1.1.1 2 .5 2 .9s.7.8 1.5.8 1.5-.4 1.5-.9 1-1.1 2.3-1.3c1.8-.2 2.3-1 2.5-4.3.2-2.2 0-3.6-.4-3.2-1.5 1.5-3.3-7-3.2-15.1.2-6.5-.2-8.6-1.5-9.9-1.4-1.4-1.8-1.4-3.3-.2-1.5 1.2-1.7 1.2-1.2-.1.3-.8-.2-2.1-1.1-2.7-1.4-1.1-1.4-1.4-.1-2.3 1.2-.8 1.2-1.2.2-1.8-.8-.6-1.1-2.7-.9-6.8.4-6-.6-9.9-2.4-8.9-.5.4-.9-.1-.9-.9 0-.9-.7-1.6-1.5-1.6s-1.5-.3-1.6-.8c0-.4-.2-1.8-.3-3.1-.2-1.3-1-2.9-1.9-3.6-.9-.7-1.3-1.6-.9-2 .4-.4.1-.6-.6-.4-.8.3-1.3.8-1.3 1.2.1.4.1 1.4.1 2.3 0 .8.4 1.3.9 1 .5-.3 1.4.1 2.1.9 1 1.3.9 1.5-1 1.5-2 0-2.2.4-1.6 3 .3 1.9.2 2.9-.4 2.5-.6-.3-1-.1-1 .4 0 .6.5 1.1 1 1.1.6 0 1 .7 1 1.6 0 2 2.4 4.4 4.3 4.4 2.8 0 4.6 1.2 4 2.6-.3.9-1.3 1.2-2.3.9-2.1-.7-3.8 1.4-2.1 2.4 1.6 1 .7 9.6-1 9.6-.8 0-1.3-.5-1.2-1.1.1-.7-.5-1.1-1.5-1-1.2.1-1.8-.9-2.2-3.4-.3-2.1-1.1-3.5-1.9-3.5-1.5 0-7.9-8.1-8-10.1-.1-1.4-2.9-2.6-4.2-1.8-.5.3-1-.7-1-2.3-.1-2.1-.3-2.3-.6-.8-.7 3-2.3 4.3-2.3 1.9 0-1.1-.5-2.5-1.1-3.1-.8-.8-.8-1.7.1-3.2.9-1.7.8-2.2-.5-2.7-2.3-.9 0-3.3 2.8-2.8 1.6.3 1.5.1-.6-.8-1.5-.7-3-2.3-3.4-3.6-.4-1.8-.8-2.1-1.4-1-.7 1-.9 1-.9-.2 0-1.3-.1-1.3-1 0s-1.3 1.2-3-.9c-1.1-1.3-2-1.9-2-1.3 0 .6.6 1.7 1.3 2.4.8.7 1.2 1.9.9 2.6-.2.6.1 1.2.8 1.2.6 0 .8.4.5 1-.3.5-1.5 1-2.6 1-1 0-1.8.3-1.8.7.3 2-.2 3.4-1 2.9-.5-.4-1.1 0-1.4.6-.6 2.1-3.6-1-3.2-3.3.6-3.2 1.8-4.5 2.4-2.6.4 1.1 1 1.4 2 .7 1.2-.7 1.2-1.1.2-2.4-1.8-2.1-3.8-2-5 .1-.8 1.4-.9 1-.4-1.6.6-3.2.5-3.3-1.8-2.6-1.3.4-3 1.2-3.8 1.9-1.1.9-1.3.7-.7-1 .3-1.1 0-2.8-.6-3.7-1.1-1.5-1.3-1.2-1.5 2zm6.9 10.8c.2 2.8 0 4.1-.6 3.5-.6-.6-1.8-1-2.8-1-1 0-1.8-.7-1.8-1.6 0-.8-.4-1.3-.8-1-.4.2-1.3-.4-2-1.5-.7-1-.8-1.9-.3-1.9.6 0 1.2.4 1.5.9.7 1.1 4.6.2 4.6-1 0-.5.4-.9.9-.9s1.1 2 1.3 4.5zm13.2 1.1c1 2.6.7 3.4-1.3 3.4-1.2 0-2 .7-2 1.7-.1 1-.4 4.9-.7 8.6-.5 5.2-1 6.7-2 6.3-.8-.3-1.4-.1-1.4.4 0 .6.7 1 1.5 1 .9 0 1.8.7 2.1 1.5.7 1.7-1.2 4.5-3 4.5-.6 0-.4-.5.4-1 1.2-.7 1.2-1.2.2-2.2-.6-.6-1.2-.8-1.2-.4 0 .5-.7.3-1.5-.4-1.3-1-1.3-1.5-.3-2.1 1.6-1-3.5-5.9-6.3-5.9-1.1 0-1.7-.5-1.4-1 .3-.6 0-1-.7-1-.9 0-.9-.3.2-1 .8-.5 2.5-.7 3.7-.4 1.8.5 2.2.2 2.1-1.8-.4-7.1-.2-7.5 5.3-7.6 5.1-.1 7.6-1 5.2-1.9-1.5-.5-1.8-2.3-.4-2.3.5 0 1.2.7 1.5 1.6zm-16.7 8.4c.8 1.3.9 2.1.2 2.5-1.4.9-3.9-1.4-3.2-3.1.7-1.9 1.6-1.8 3 .6zm-9.1 1.4c1.7 1.8 1.8 2.8.1 2.4-.7-.2-1.2.1-1.2.7 0 .5.6.9 1.3.9.6-.1 1.2.4 1.2 1.2 0 1.7-2.7 1.9-3.3.1-.3-.9-.8-.9-2.1.2-.9.8-1.9 1.1-2.3.7-.3-.3-.1-.6.5-.6.7 0 1.2-.7 1.2-1.6 0-1.7 1.8-5.4 2.6-5.4.3 0 1.2.6 2 1.4zm24.8 19.8c-1 1.6-2.2-1.1-1.6-3.5.5-2 .5-2 1.4.2.4 1.3.5 2.7.2 3.3zm-17-2.6c.4 1 .1 1.4-.6 1.2-1.5-.5-2.3-2.8-1-2.8.5 0 1.3.7 1.6 1.6zm13.1 9.9c0 1-.4 2-1 2.2-1.7.5-3.6-1.3-3-2.9.9-2.2 4-1.6 4 .7zm47.5 2.4c0 1.6-.7 3.4-1.5 4.1-.8.7-1.5 1.1-1.6.9-.8-3.7-.8-5.9.1-5.9.5 0 1-.7 1-1.6 0-.8.5-1.2 1-.9.6.3 1 1.9 1 3.4zm-5 3.6c0 .8-.7 1.5-1.5 1.5-1.6 0-2-1.2-.8-2.3 1.1-1.2 2.3-.8 2.3.8zm2 5c0 .8-.4 1.5-1 1.5-.5 0-1-.7-1-1.5s.5-1.5 1-1.5c.6 0 1 .7 1 1.5zm5 9.5c0 .5-.4 1-1 1-.5 0-1-.5-1-1 0-.6.5-1 1-1 .6 0 1 .4 1 1zM220 220c0 .5.5 1 1.1 1 .5 0 .7-.5.4-1-.3-.6-.8-1-1.1-1-.2 0-.4.4-.4 1zM254 220c-.9.6-1 1-.3 1 .6 0 1.5-.5 1.8-1 .8-1.2.4-1.2-1.5 0zM388 221.4c0 .8.5 1.8 1 2.1.6.3 1-.1 1-.9s-.4-1.8-1-2.1c-.5-.3-1 .1-1 .9z"/><path d="M233.5 224.3c-.8 3.1-.4 4 1.8 3.5 1.3-.3 1.3-.7.2-3.3l-1.2-3-.8 2.8zM189.2 225c0 1.4.2 1.9.5 1.2.2-.6.2-1.8 0-2.5-.3-.6-.5-.1-.5 1.3zM391.2 227c0 1.4.2 1.9.5 1.2.2-.6.2-1.8 0-2.5-.3-.6-.5-.1-.5 1.3zM396 226.7c-1.8.7-3 2.4-2.4 3.4.8 1.3 4.2-.3 4.7-2.2.5-2 .2-2.1-2.3-1.2zM246.6 250.3c.3 1 .9 1.5 1.2 1.2.3-.3 0-1.1-.7-1.8-1-.9-1.1-.8-.5.6zM266 255c0 .5.5 1 1.1 1 .5 0 .7-.5.4-1-.3-.6-.8-1-1.1-1-.2 0-.4.4-.4 1zM200 256c0 .5.5 1 1.1 1 .5 0 .7-.5.4-1-.3-.6-.8-1-1.1-1-.2 0-.4.4-.4 1zM274.2 257c0 1.4.2 1.9.5 1.2.2-.6.2-1.8 0-2.5-.3-.6-.5-.1-.5 1.3zM195 258.7c0 1.3.5 2.3 1 2.3 1.3 0 1.3-1.1 0-3-.8-1.2-1-1.1-1 .7zM209.5 272c-.3.6.1.7.9.4 1.8-.7 2.1-1.4.7-1.4-.6 0-1.3.4-1.6 1zM229 280.7c0 1.3.5 2.3 1 2.3 1.3 0 1.3-1.1 0-3-.8-1.2-1-1.1-1 .7zM242 284.6c0 .5.7 1.9 1.5 3 .8 1 1.5 1.4 1.5.8 0-.5-.7-1.9-1.5-3-.8-1-1.5-1.4-1.5-.8zM231 288.2c0 1.9.2 2 1 .8 1.3-1.9 1.3-3 0-3-.5 0-1 1-1 2.2zM234.9 286.2c-.7 2.1-.3 4.8.7 4.8.7 0 1.6.9 1.9 2 .3 1.1 1.1 2 1.6 2s1 1.2 1 2.7c.1 1.9.3 2.2.6 1 .3-1.2 1-1.6 2-1.3 1.1.5.9-.3-.7-2.6-1.2-1.8-2.7-4.5-3.3-6.1-.6-1.5-1.7-2.7-2.4-2.7s-1.3.1-1.4.2zM228.4 294.5c.1 1.7.7 2.5 1.9 2.5 1.4 0 1.6-.4.7-1.9-1.6-3.1-2.8-3.3-2.6-.6zM234 293c0 .5.5 1 1 1 .6 0 1-.5 1-1 0-.6-.4-1-1-1-.5 0-1 .4-1 1zM243 300c0 .5.5 1 1.1 1 .5 0 .7-.5.4-1-.3-.6-.8-1-1.1-1-.2 0-.4.4-.4 1zM246.5 301c.3.5.8 1 1.1 1 .2 0 .4-.5.4-1 0-.6-.5-1-1.1-1-.5 0-.7.4-.4 1zM216 303c0 .5.7 1 1.6 1 .8 0 1.2-.5.9-1-.3-.6-1-1-1.6-1-.5 0-.9.4-.9 1zM239.4 312c0 1.3.4 1.6 1 1 .7-.7.7-1.3 0-2-.6-.6-1-.3-1 1z"/></svg>