<?xml version="1.0" standalone="no"?>
<!DOCTYPE svg PUBLIC "-//W3C//DTD SVG 20010904//EN"
 "http://www.w3.org/TR/2001/REC-SVG-20010904/DTD/svg10.dtd">
<svg version="1.0" xmlns="http://www.w3.org/2000/svg"
 width="670.000000pt" height="670.000000pt" viewBox="0 0 670.000000 670.000000"
 preserveAspectRatio="xMidYMid meet">
<metadata>
Created by potrace 1.11, written by Peter Selinger 2001-2013
</metadata>
<g transform="translate(0.000000,670.000000) scale(0.100000,-0.100000)"
fill="#000000" stroke="none">
<path d="M0 3350 l0 -3350 3350 0 3350 0 0 3350 0 3350 -3350 0 -3350 0 0
-3350z m2895 2540 c-3 -17 2 -20 31 -20 22 0 37 6 40 15 4 10 19 15 43 15 23
0 31 -3 23 -9 -10 -6 -8 -10 10 -14 12 -4 25 -2 26 3 2 6 11 10 20 10 15 0 15
-2 2 -11 -12 -8 -9 -9 12 -5 15 3 29 2 32 -3 3 -4 30 -11 59 -14 30 -3 63 -10
73 -15 24 -13 53 -24 78 -29 10 -2 32 -13 49 -25 17 -12 27 -17 23 -10 -8 14
6 16 20 3 18 -18 81 -49 112 -56 20 -4 30 -11 25 -18 -4 -6 0 -8 9 -4 10 3 18
-1 21 -12 2 -10 17 -21 32 -25 30 -8 95 -71 95 -92 0 -8 11 -14 25 -14 26 0
95 -56 95 -77 0 -7 15 -24 34 -38 19 -15 38 -39 41 -55 4 -17 14 -30 28 -34
11 -3 18 -8 14 -12 -4 -4 -2 -13 4 -21 6 -7 9 -13 5 -13 -3 0 8 -14 26 -31 18
-17 27 -28 21 -24 -7 3 -13 1 -13 -4 0 -6 6 -11 13 -11 17 0 38 -48 23 -54 -6
-2 -3 -5 6 -5 9 -1 20 -6 24 -13 4 -6 3 -8 -4 -5 -6 5 -6 -2 1 -18 7 -14 15
-25 20 -25 4 0 7 -9 7 -19 0 -11 5 -23 10 -26 6 -4 8 -11 5 -16 -4 -5 -2 -9 3
-9 6 0 13 -17 17 -37 4 -20 15 -53 25 -73 10 -20 29 -68 41 -106 12 -38 24
-73 28 -79 3 -5 6 -26 7 -45 0 -19 3 -44 7 -55 45 -136 53 -556 12 -605 -15
-18 -37 -81 -31 -88 3 -2 12 11 20 29 8 19 15 26 15 17 1 -9 -8 -32 -19 -50
-11 -19 -22 -60 -25 -93 -10 -120 -18 -159 -41 -203 -13 -24 -21 -48 -19 -52
3 -5 1 -10 -5 -12 -14 -4 -41 -98 -28 -98 6 0 5 -7 -2 -16 -14 -16 -20 -144
-7 -144 4 0 7 -18 7 -41 0 -34 -6 -46 -37 -74 -21 -19 -50 -40 -66 -46 -15 -7
-26 -17 -23 -24 2 -7 -2 -22 -9 -33 -8 -10 -11 -22 -8 -26 3 -3 1 -6 -6 -6
-18 0 -59 -50 -72 -88 -9 -26 -22 -39 -60 -57 -27 -12 -46 -25 -42 -29 3 -3
-6 -6 -20 -6 -15 0 -27 -4 -27 -8 0 -5 -11 -15 -25 -22 -13 -7 -22 -17 -19
-21 3 -5 -7 -20 -21 -33 -15 -14 -24 -30 -20 -36 5 -8 0 -8 -16 1 -22 11 -23
11 -10 -5 12 -14 12 -16 -3 -10 -13 5 -12 -5 11 -56 26 -61 26 -63 8 -76 -10
-8 -25 -14 -33 -14 -19 0 -11 -58 23 -164 14 -43 25 -91 24 -105 0 -23 -38 96
-70 222 l-12 47 -48 -3 c-56 -5 -59 -1 -59 81 0 31 -4 52 -8 45 -8 -13 -77
-21 -88 -10 -4 4 -31 7 -59 7 -55 0 -185 29 -224 49 -12 7 -30 10 -38 7 -14
-6 -45 5 -138 49 -16 8 -57 21 -90 28 -56 13 -99 33 -163 75 -16 10 -23 12
-18 4 7 -11 4 -11 -13 -1 -15 10 -17 16 -8 22 8 6 6 7 -6 3 -20 -6 -86 28
-105 55 -7 11 -20 19 -29 19 -31 0 -83 24 -88 40 -7 22 -55 45 -56 27 0 -6 -4
-2 -9 9 -5 12 -22 28 -39 35 -16 7 -27 17 -25 21 3 4 -2 5 -10 2 -16 -6 -46
17 -46 35 0 6 -9 11 -19 11 -10 0 -32 15 -48 33 -16 18 -34 32 -40 30 -13 -5
-36 31 -26 41 3 3 -8 9 -25 12 -20 4 -32 13 -32 23 0 14 -2 14 -10 1 -7 -12
-10 -12 -10 -1 0 7 -11 26 -25 43 -14 16 -25 35 -25 43 0 7 -10 15 -22 18 -12
4 -19 9 -15 13 4 4 -2 13 -13 21 -12 8 -17 20 -13 30 5 12 2 15 -10 10 -17 -6
-42 24 -30 37 3 3 1 6 -6 6 -7 0 -9 5 -6 10 3 6 2 10 -4 10 -6 0 -13 11 -17
25 -4 14 -9 23 -12 20 -9 -9 -42 48 -42 73 0 15 -4 21 -12 16 -7 -5 -9 -2 -5
9 3 8 -1 21 -9 27 -8 7 -14 22 -14 34 0 12 -9 40 -21 61 -27 53 -50 126 -42
138 3 6 1 7 -4 4 -7 -4 -9 8 -6 36 5 41 -22 127 -39 127 -5 0 -8 15 -8 33 0
17 -5 51 -10 74 -12 52 -14 130 -5 163 4 14 11 84 16 155 4 72 13 155 18 185
19 103 77 270 93 270 4 0 8 12 8 28 0 15 9 35 20 45 11 9 20 26 20 37 0 11 5
20 10 20 6 0 10 8 10 18 0 9 8 29 18 43 86 132 114 170 146 201 19 19 33 38
29 42 -4 4 0 4 10 1 12 -5 20 1 28 19 7 14 18 26 24 26 7 0 23 13 36 30 13 16
30 30 37 30 7 0 11 4 8 9 -5 8 29 25 47 22 4 -1 7 4 7 9 0 6 12 15 26 20 14 6
22 14 19 20 -3 5 2 10 12 10 10 0 26 8 35 19 9 11 26 17 42 16 14 -2 24 2 23
8 -1 6 7 13 18 15 11 2 24 11 30 18 5 8 27 15 48 16 21 1 33 4 26 8 -15 10 -2
17 51 24 81 12 100 18 95 26 -7 11 61 23 87 14 11 -3 18 -2 15 3 -3 5 17 9 46
8 40 -1 55 3 65 17 8 11 26 18 47 18 28 0 33 -3 30 -20z m65 0 c0 -5 -10 -10
-22 -10 -19 0 -20 2 -8 10 19 13 30 13 30 0z m764 -3855 c3 -38 3 -59 0 -45
-43 227 -54 291 -53 311 2 40 47 -190 53 -266z m47 -394 c11 -78 18 -146 15
-149 -3 -3 -6 1 -6 9 0 8 -12 86 -25 174 -14 88 -24 180 -24 205 1 38 3 34 11
-25 4 -38 18 -135 29 -214z m26 -243 c-3 -7 -5 -2 -5 12 0 14 2 19 5 13 2 -7
2 -19 0 -25z m10 -50 c-3 -8 -6 -5 -6 6 -1 11 2 17 5 13 3 -3 4 -12 1 -19z"/>
<path d="M3010 5470 c-9 -16 -8 -18 5 -14 8 4 15 12 15 20 0 20 -7 17 -20 -6z"/>
<path d="M3046 5473 c5 -5 12 -12 16 -18 4 -6 8 -2 8 8 0 9 -7 17 -17 17 -9 0
-12 -3 -7 -7z"/>
<path d="M2956 5453 c-3 -4 -1 -12 4 -18 8 -9 6 -14 -6 -19 -9 -3 -14 -13 -10
-21 6 -16 -37 -65 -57 -65 -7 -1 -3 -8 8 -18 20 -16 32 -62 16 -62 -4 0 -5
-16 -3 -37 4 -30 2 -35 -12 -30 -14 6 -15 3 -6 -13 8 -15 8 -20 -2 -20 -8 0
-9 -3 -3 -8 6 -4 9 -14 9 -22 -1 -8 -2 -23 -3 -34 -1 -14 -7 -17 -26 -14 -14
3 -25 2 -25 -2 0 -15 71 -16 91 -2 26 18 37 8 15 -14 -10 -9 -15 -23 -12 -31
3 -8 6 -17 6 -19 0 -2 7 -4 15 -4 9 0 12 6 8 18 -6 15 -4 15 15 -2 22 -19 26
-16 23 16 -1 9 6 19 16 21 10 2 3 3 -15 1 -18 -1 -30 1 -27 7 4 5 17 9 31 9
14 0 23 4 19 9 -5 9 7 7 80 -17 96 -32 109 -35 113 -23 3 9 8 9 17 1 7 -6 19
-9 26 -8 8 2 14 -3 13 -9 -1 -7 -2 -20 -2 -29 -1 -10 -8 -14 -17 -10 -11 4
-15 -1 -15 -19 0 -18 -5 -25 -19 -25 -11 0 -22 6 -24 13 -3 7 -6 5 -6 -5 -1
-10 -6 -18 -11 -18 -10 0 8 -40 23 -51 5 -4 7 -18 6 -31 -2 -14 2 -32 10 -41
7 -9 14 -27 15 -41 0 -13 4 -22 7 -20 4 2 10 -7 13 -21 4 -14 12 -25 19 -25
18 -1 50 -49 43 -67 -4 -10 -2 -14 8 -10 7 3 19 0 26 -6 10 -9 11 -9 6 1 -4 7
-1 12 7 12 8 0 17 -7 21 -15 3 -9 12 -12 22 -8 9 3 20 0 24 -7 7 -11 11 -11
23 -1 13 10 16 7 22 -19 5 -25 11 -31 26 -27 19 5 22 -12 4 -25 -6 -5 -4 -8 4
-8 21 0 40 31 41 68 0 17 5 32 10 32 6 0 10 7 10 15 0 8 5 15 11 15 5 0 7 5 4
10 -4 6 -1 17 5 25 10 12 10 15 0 15 -8 0 -10 3 -7 7 4 3 15 -1 25 -10 10 -10
22 -14 25 -10 4 3 17 -3 30 -14 12 -11 31 -19 42 -17 11 1 23 -2 27 -9 5 -7 8
-3 8 12 0 13 11 39 25 57 28 37 30 49 10 84 -12 22 -14 23 -20 8 -11 -28 -25
-21 -25 12 0 17 5 30 10 30 6 0 10 7 10 15 0 8 9 15 20 15 42 0 3 43 -50 55
-31 7 -35 12 -58 84 -8 25 -9 37 -1 42 7 4 5 9 -6 12 -11 5 -14 3 -10 -6 4 -6
0 -3 -9 7 -14 17 -16 17 -22 3 -3 -9 -11 -14 -18 -10 -6 4 -5 -1 3 -10 12 -15
11 -17 -3 -17 -9 0 -16 5 -16 11 0 8 -5 8 -15 -1 -8 -7 -15 -19 -15 -26 0 -22
-15 -16 -30 11 -7 14 -19 25 -26 25 -7 0 -18 10 -25 21 -9 17 -13 19 -20 8
-10 -16 -10 -14 -14 21 -1 14 2 28 9 33 8 5 6 11 -6 21 -19 14 -25 32 -7 21 5
-4 3 10 -6 30 -11 27 -12 41 -4 51 8 9 1 23 -29 53 -22 23 -45 41 -51 41 -7 0
-18 14 -25 31 -8 20 -16 27 -20 20 -4 -7 -16 -9 -27 -6 -15 5 -19 1 -19 -15 0
-29 -19 -62 -31 -55 -5 4 -9 18 -9 33 0 43 -12 52 -63 50 -26 -1 -47 -6 -47
-10 0 -4 -7 -8 -16 -8 -10 0 -14 5 -10 15 4 12 2 14 -10 7 -21 -12 -74 -3 -74
13 0 14 -25 27 -34 18z m223 -305 c-15 -28 -24 -9 -14 30 6 23 8 24 16 9 7
-11 6 -24 -2 -39z m-212 -34 c-3 -3 -12 -4 -19 -1 -8 3 -5 6 6 6 11 1 17 -2
13 -5z m383 -105 c0 -5 -9 -9 -20 -9 -19 0 -26 11 -14 23 8 8 34 -3 34 -14z
m392 -258 c2 -17 1 -28 -4 -25 -8 5 -12 54 -4 54 2 0 6 -13 8 -29z m-94 -13
c16 -16 15 -28 -3 -28 -8 0 -15 2 -15 4 0 2 -3 11 -6 20 -7 19 7 21 24 4z
m-98 -53 c0 -9 -6 -12 -15 -9 -8 4 -15 10 -15 15 0 5 7 9 15 9 8 0 15 -7 15
-15z m-32 -97 c-16 -32 -26 -19 -15 18 9 29 12 33 18 18 3 -11 2 -27 -3 -36z"/>
<path d="M2510 5412 c0 -25 -30 -44 -75 -48 -28 -3 -54 -9 -58 -13 -5 -5 -26
-4 -47 1 -48 12 -98 -6 -106 -39 -5 -17 -13 -23 -35 -23 -41 0 -40 -34 2 -49
l31 -11 -17 -27 c-10 -15 -18 -38 -19 -52 -1 -31 -25 -40 -33 -12 -6 23 -18
27 -28 11 -5 -8 -11 -7 -21 1 -11 9 -14 8 -14 -4 0 -9 5 -19 10 -22 6 -3 10
-15 10 -26 0 -10 5 -19 10 -19 6 0 10 -6 10 -13 0 -7 8 -13 19 -13 11 0 17 5
14 13 -5 13 40 63 56 63 17 0 -2 -62 -22 -69 -19 -7 -19 -9 9 -34 16 -15 32
-27 36 -27 5 0 8 -4 8 -10 0 -5 -7 -10 -15 -10 -15 0 -21 -21 -10 -32 7 -7 55
14 55 25 0 4 8 7 18 7 16 1 16 1 0 14 -14 10 -18 28 -18 72 0 42 3 55 10 44 6
-8 7 -35 3 -60 -5 -41 -5 -44 10 -31 10 7 17 10 17 6 0 -4 7 -2 15 5 9 8 12
22 8 43 -8 43 9 26 23 -24 8 -27 9 -39 1 -39 -6 0 -8 -2 -5 -5 3 -3 13 -2 22
1 12 5 16 14 13 31 -4 20 -1 23 17 17 26 -8 36 -23 29 -41 -3 -8 0 -13 8 -11
8 2 16 14 19 28 3 14 15 29 28 35 12 5 22 15 22 22 0 7 5 13 10 13 7 0 7 -6 0
-19 -5 -11 -10 -33 -10 -50 0 -24 4 -31 20 -31 13 0 20 7 20 20 0 12 7 20 18
20 23 1 57 30 64 56 9 35 -9 56 -42 49 -23 -5 -31 -2 -40 14 -6 12 -17 21 -25
21 -7 0 -17 9 -20 20 -3 11 -11 20 -16 20 -5 0 -9 7 -9 15 0 8 4 15 9 15 5 0
15 16 22 35 12 33 29 47 29 25 0 -5 5 -10 11 -10 5 0 7 5 4 10 -3 6 -1 10 4
10 6 0 11 7 11 15 0 8 9 19 19 25 14 7 17 16 13 32 -3 12 -7 17 -10 10 -5 -16
-20 -15 -38 3 -16 16 -54 21 -54 7z m-170 -159 c0 -20 -3 -24 -11 -16 -7 7 -9
19 -6 27 10 24 17 19 17 -11z m126 -18 c9 -23 -15 -45 -48 -45 -25 0 -29 4
-26 22 2 14 13 25 28 29 38 11 40 10 46 -6z m-204 -117 c-7 -7 -12 -8 -12 -2
0 14 12 26 19 19 2 -3 -1 -11 -7 -17z m8 -74 c0 -8 -7 -14 -15 -14 -8 0 -15 9
-15 20 0 13 5 18 15 14 8 -4 15 -12 15 -20z"/>
<path d="M2736 5261 c-7 -10 19 -34 39 -37 25 -4 24 23 -1 35 -30 13 -31 13
-38 2z"/>
<path d="M2726 5225 c-3 -8 -1 -15 4 -15 13 0 22 18 11 24 -5 3 -11 -1 -15 -9z"/>
<path d="M3551 5074 c0 -11 3 -14 6 -6 3 7 2 16 -1 19 -3 4 -6 -2 -5 -13z"/>
<path d="M3038 5043 c-21 -5 -24 -23 -5 -23 7 0 22 -7 33 -15 19 -14 18 -14
-2 -9 -25 6 -27 -16 -6 -54 7 -12 9 -22 5 -21 -20 3 -34 -2 -53 -21 l-20 -20
0 30 c0 20 -5 30 -15 30 -9 0 -18 8 -22 18 -3 9 -17 29 -32 43 -25 24 -27 25
-54 10 -26 -15 -29 -15 -41 2 -13 17 -14 16 -19 -2 -3 -14 -11 -18 -25 -14
-14 3 -24 -2 -31 -16 -8 -14 -8 -21 -1 -21 5 0 10 -4 10 -10 0 -5 -7 -10 -16
-10 -14 0 -14 -1 0 -16 9 -8 14 -20 11 -25 -10 -16 15 -49 38 -49 12 0 36 -7
52 -16 17 -9 53 -18 81 -20 47 -3 53 0 96 40 30 27 51 58 59 84 8 30 18 42 31
42 22 0 23 13 3 30 -8 7 -15 19 -15 26 0 14 -26 17 -62 7z m55 -17 c4 -10 1
-13 -9 -9 -15 6 -19 23 -5 23 5 0 11 -7 14 -14z"/>
<path d="M2146 5005 c-3 -9 -6 -22 -5 -28 0 -7 5 -1 10 12 5 13 8 26 5 28 -2
2 -6 -3 -10 -12z"/>
<path d="M2310 5011 c0 -10 19 -25 25 -20 1 2 -3 10 -11 17 -8 7 -14 8 -14 3z"/>
<path d="M2415 5001 c-3 -5 -1 -12 5 -16 5 -3 10 1 10 9 0 18 -6 21 -15 7z"/>
<path d="M3146 4983 c-11 -11 -6 -23 9 -23 8 0 15 4 15 9 0 13 -16 22 -24 14z"/>
<path d="M2030 4973 c0 -4 5 -15 10 -23 8 -13 10 -13 10 2 0 9 -4 20 -10 23
-5 3 -10 3 -10 -2z"/>
<path d="M2007 4945 c-8 -20 -4 -29 11 -24 5 2 6 13 2 23 -6 19 -7 19 -13 1z"/>
<path d="M2110 4949 c0 -5 5 -7 10 -4 6 3 10 8 10 11 0 2 -4 4 -10 4 -5 0 -10
-5 -10 -11z"/>
<path d="M2500 4950 c-15 -10 -11 -11 54 -14 22 -2 32 -21 17 -31 -7 -4 -8 0
-4 11 4 12 3 15 -5 10 -17 -10 -15 -23 9 -45 17 -16 19 -23 10 -40 -7 -12 -15
-21 -19 -21 -4 0 -13 -9 -20 -21 -11 -18 -11 -24 4 -40 15 -17 15 -19 1 -19
-19 0 -47 -27 -46 -43 0 -9 2 -8 6 1 7 17 20 15 27 -4 3 -8 2 -12 -4 -9 -15 9
-12 -8 7 -35 16 -22 16 -23 0 -17 -12 5 -17 1 -17 -13 0 -10 5 -22 10 -25 6
-4 8 -10 5 -15 -3 -4 2 -11 11 -14 25 -9 54 -7 54 5 0 5 5 7 11 3 8 -5 10 1 6
18 -6 21 -3 27 14 31 15 4 19 2 15 -9 -4 -10 2 -14 19 -14 13 0 27 -5 31 -12
5 -8 11 -2 16 17 9 36 -7 58 -39 52 -13 -2 -26 0 -29 4 -3 5 -1 9 5 9 12 0 7
83 -5 87 -43 15 -41 43 4 39 16 -2 33 4 42 14 8 9 25 20 38 24 18 6 21 11 12
21 -7 8 -9 19 -5 25 18 30 -78 74 -97 46 -5 -7 -11 -8 -15 -1 -24 31 -92 45
-123 25z"/>
<path d="M1980 4874 c0 -6 6 -24 14 -38 10 -21 15 -23 19 -11 4 8 2 15 -3 15
-19 0 -10 21 13 30 12 5 18 9 12 10 -42 6 -55 5 -55 -6z"/>
<path d="M3145 4860 c-3 -5 -1 -10 4 -10 6 0 11 5 11 10 0 6 -2 10 -4 10 -3 0
-8 -4 -11 -10z"/>
<path d="M3045 4850 c-3 -5 -1 -10 4 -10 6 0 11 5 11 10 0 6 -2 10 -4 10 -3 0
-8 -4 -11 -10z"/>
<path d="M2034 4789 c-8 -9 -9 -28 -4 -54 4 -22 8 -31 9 -20 1 17 3 18 11 5 8
-12 10 -9 10 12 0 14 3 28 8 31 4 2 2 2 -5 1 -6 -2 -13 7 -15 18 -2 18 -5 19
-14 7z"/>
<path d="M3907 4731 c-25 -30 -26 -30 -30 -8 -3 15 -5 12 -6 -11 -1 -22 3 -31
10 -26 7 4 9 0 5 -13 -8 -25 30 -129 45 -125 16 4 29 -17 29 -45 0 -31 17 -29
23 3 3 16 0 28 -9 31 -8 3 -11 10 -8 15 4 6 10 5 15 -3 7 -11 9 -11 9 -1 0 7
4 10 10 7 5 -3 7 0 4 9 -3 9 3 17 16 21 21 7 22 8 10 83 0 1 -6 2 -13 2 -12 0
-55 44 -76 78 -6 10 -14 6 -34 -17z m53 -96 c0 -9 -9 -15 -22 -15 -21 0 -21 0
-2 15 24 18 24 18 24 0z"/>
<path d="M2435 4741 c-6 -11 9 -23 19 -14 9 9 7 23 -3 23 -6 0 -12 -4 -16 -9z"/>
<path d="M2397 4688 c-2 -7 -1 -22 4 -34 4 -11 4 -27 -1 -34 -11 -18 9 -60 29
-60 9 0 25 -7 35 -15 18 -13 16 -14 -20 -10 -30 4 -35 2 -21 -6 9 -5 22 -7 27
-4 6 3 10 2 10 -3 0 -5 6 -9 13 -9 6 0 21 -4 32 -8 16 -5 17 -5 5 3 -12 9 -11
14 8 30 l22 19 -26 11 c-14 7 -31 12 -38 12 -20 0 -37 25 -30 44 3 9 17 16 29
16 33 0 39 15 16 37 -24 22 -87 29 -94 11z"/>
<path d="M3831 4667 c-8 -15 -17 -27 -20 -27 -8 0 -4 -96 4 -110 12 -20 22 0
19 37 -2 21 1 50 7 65 6 14 9 34 7 44 -2 14 -6 12 -17 -9z"/>
<path d="M2070 4665 c-10 -12 -10 -15 2 -15 8 0 15 7 15 15 0 8 -1 15 -2 15
-2 0 -8 -7 -15 -15z"/>
<path d="M2100 4664 c0 -8 5 -12 10 -9 6 3 10 10 10 16 0 5 -4 9 -10 9 -5 0
-10 -7 -10 -16z"/>
<path d="M2472 4608 c5 -15 28 -23 28 -10 0 5 -7 13 -16 16 -10 4 -14 1 -12
-6z"/>
<path d="M2754 4597 c-3 -8 0 -26 6 -42 8 -22 13 -26 23 -16 9 9 9 14 -3 21
-8 6 -10 10 -3 10 6 0 9 9 6 20 -6 23 -21 26 -29 7z"/>
<path d="M3857 4604 c-10 -10 -9 -54 2 -54 12 0 22 43 13 52 -5 5 -11 5 -15 2z"/>
<path d="M2124 4554 c3 -9 6 -20 6 -26 0 -19 23 -2 27 20 2 17 -2 22 -18 22
-15 0 -19 -4 -15 -16z"/>
<path d="M2572 4530 c0 -14 2 -19 5 -12 2 6 2 18 0 25 -3 6 -5 1 -5 -13z"/>
<path d="M2015 4530 c3 -5 8 -10 11 -10 2 0 4 5 4 10 0 6 -5 10 -11 10 -5 0
-7 -4 -4 -10z"/>
<path d="M2018 4503 c6 -2 18 -2 25 0 6 3 1 5 -13 5 -14 0 -19 -2 -12 -5z"/>
<path d="M2073 4473 c-1 -21 3 -43 9 -50 16 -20 3 -26 -16 -8 -12 13 -26 15
-61 9 -25 -3 -48 -10 -51 -15 -2 -5 0 -27 6 -50 13 -47 5 -115 -14 -122 -10
-4 -14 13 -15 66 -1 40 -4 80 -7 90 -9 27 -24 20 -24 -12 0 -16 -4 -41 -9 -55
-8 -19 -6 -30 10 -50 11 -14 18 -30 15 -35 -3 -5 2 -12 11 -15 14 -6 14 -8 -3
-21 -17 -13 -17 -14 -2 -15 10 0 22 -9 28 -19 10 -19 11 -19 39 -3 36 20 43
14 43 -32 0 -19 6 -40 14 -47 8 -6 14 -17 14 -24 0 -14 35 -33 70 -37 17 -2
26 -10 28 -26 2 -12 11 -28 21 -34 17 -10 17 -12 2 -28 -15 -15 -18 -15 -39 8
-27 28 -42 21 -23 -10 12 -19 11 -24 -10 -42 -33 -28 -26 -91 11 -109 15 -8
25 -21 25 -34 1 -24 15 -45 15 -22 1 10 5 9 15 -5 8 -10 12 -23 9 -27 -3 -5 5
-9 17 -9 12 0 28 -8 36 -17 8 -10 12 -13 9 -6 -4 6 -2 14 4 18 5 3 10 1 10 -6
0 -7 3 -10 6 -7 3 4 1 16 -6 27 -8 15 -8 21 0 21 6 0 8 5 5 10 -3 6 -1 10 4
10 17 0 13 15 -13 43 -13 14 -27 42 -30 62 -5 26 -11 35 -21 31 -11 -4 -14 2
-13 19 1 14 8 25 15 25 7 0 13 6 13 13 0 19 39 39 63 31 22 -7 22 -6 3 15 -11
11 -16 24 -13 28 4 3 7 0 7 -7 0 -7 2 -11 5 -8 3 3 1 17 -4 32 -7 18 -7 26 0
26 6 0 9 10 7 23 -2 13 2 21 10 19 6 -1 12 3 12 9 0 5 4 8 9 4 5 -3 12 -1 16
5 12 19 35 10 41 -17 4 -16 9 -32 12 -37 11 -20 8 -106 -4 -106 -7 0 -12 -9
-11 -20 2 -29 13 -25 29 10 15 35 28 39 28 9 0 -11 5 -17 10 -14 6 3 10 2 10
-3 0 -6 7 -13 16 -16 12 -4 15 -2 10 9 -3 9 0 15 9 15 8 0 15 7 15 15 0 8 -6
15 -13 15 -7 0 -13 9 -14 20 -1 11 2 20 8 20 5 0 9 7 9 16 0 8 -4 13 -9 9 -5
-3 -13 -1 -16 5 -9 15 -48 -37 -39 -52 5 -10 4 -10 -5 -2 -10 9 -10 17 3 36
17 26 11 40 -19 52 -20 8 -20 8 -1 19 11 7 30 23 43 36 19 20 25 22 38 11 12
-10 15 -23 10 -52 -4 -24 -3 -38 4 -38 6 0 8 -6 5 -14 -4 -12 2 -13 31 -6 47
11 105 2 105 -16 0 -8 5 -14 10 -14 6 0 10 -7 10 -15 0 -8 -4 -15 -10 -15 -5
0 -10 5 -10 11 0 5 -4 8 -9 5 -5 -4 -11 -2 -13 3 -1 4 -12 11 -23 15 -15 4
-25 -1 -38 -22 -14 -21 -17 -23 -15 -7 2 12 -4 21 -14 23 -15 3 -17 -2 -11
-30 3 -18 10 -34 15 -36 4 -2 8 -8 8 -13 0 -6 -4 -7 -10 -4 -5 3 -10 1 -10 -4
0 -6 6 -11 13 -11 7 0 18 -9 25 -20 7 -11 19 -20 27 -20 8 0 15 -9 15 -20 0
-26 -1 -25 -52 9 -48 33 -55 33 -38 1 7 -12 10 -34 7 -48 -6 -29 7 -55 42 -89
28 -26 32 -28 49 -11 10 10 15 10 22 -2 8 -12 10 -11 10 7 0 16 6 21 20 20 11
-1 20 -5 20 -9 0 -4 7 -8 15 -8 8 0 15 4 15 9 0 5 10 11 23 13 18 2 23 10 25
43 2 22 0 36 -4 32 -15 -15 -33 70 -32 151 2 65 -2 86 -15 99 -14 14 -18 14
-33 2 -15 -12 -17 -12 -12 1 3 8 -2 21 -11 27 -14 11 -14 14 -1 23 12 8 12 12
2 18 -8 6 -11 27 -9 68 4 60 -6 99 -24 89 -5 -4 -9 1 -9 9 0 9 -7 16 -15 16
-8 0 -15 3 -16 8 0 4 -2 18 -3 31 -2 13 -10 29 -19 36 -9 7 -13 16 -9 20 4 4
1 6 -6 4 -8 -3 -13 -8 -13 -12 1 -4 1 -14 1 -23 0 -8 4 -13 9 -10 5 3 14 -1
21 -9 10 -13 9 -15 -10 -15 -20 0 -22 -4 -16 -30 3 -19 2 -29 -4 -25 -6 3 -10
1 -10 -4 0 -6 5 -11 10 -11 6 0 10 -7 10 -16 0 -20 24 -44 43 -44 28 0 46 -12
40 -26 -3 -9 -13 -12 -23 -9 -21 7 -38 -14 -21 -24 16 -10 7 -96 -10 -96 -8 0
-13 5 -12 11 1 7 -5 11 -15 10 -12 -1 -18 9 -22 34 -3 21 -11 35 -19 35 -15 0
-79 81 -80 101 -1 14 -29 26 -42 18 -5 -3 -10 7 -10 23 -1 21 -3 23 -6 8 -7
-30 -23 -43 -23 -19 0 11 -5 25 -11 31 -8 8 -8 17 1 32 9 17 8 22 -5 27 -23 9
0 33 28 28 16 -3 15 -1 -6 8 -15 7 -30 23 -34 36 -4 18 -8 21 -14 10 -7 -10
-9 -10 -9 2 0 13 -1 13 -10 0 -9 -13 -13 -12 -30 9 -11 13 -20 19 -20 13 0 -6
6 -17 13 -24 8 -7 12 -19 9 -26 -2 -6 1 -12 8 -12 6 0 8 -4 5 -10 -3 -5 -15
-10 -26 -10 -10 0 -18 -3 -18 -7 3 -20 -2 -34 -10 -29 -5 4 -11 0 -14 -6 -6
-21 -36 10 -32 33 6 32 18 45 24 26 4 -11 10 -14 20 -7 12 7 12 11 2 24 -18
21 -38 20 -50 -1 -8 -14 -9 -10 -4 16 6 32 5 33 -18 26 -13 -4 -30 -12 -38
-19 -11 -9 -13 -7 -7 10 3 11 0 28 -6 37 -11 15 -13 12 -15 -20z m69 -108 c2
-28 0 -41 -6 -35 -6 6 -18 10 -28 10 -10 0 -18 7 -18 16 0 8 -4 13 -8 10 -4
-2 -13 4 -20 15 -7 10 -8 19 -3 19 6 0 12 -4 15 -9 7 -11 46 -2 46 10 0 5 4 9
9 9 5 0 11 -20 13 -45z m132 -11 c10 -26 7 -34 -13 -34 -12 0 -20 -7 -20 -17
-1 -10 -4 -49 -7 -86 -5 -52 -10 -67 -20 -63 -8 3 -14 1 -14 -4 0 -6 7 -10 15
-10 9 0 18 -7 21 -15 7 -17 -12 -45 -30 -45 -6 0 -4 5 4 10 12 7 12 12 2 22
-6 6 -12 8 -12 4 0 -5 -7 -3 -15 4 -13 10 -13 15 -3 21 16 10 -35 59 -63 59
-11 0 -17 5 -14 10 3 6 0 10 -7 10 -9 0 -9 3 2 10 8 5 25 7 37 4 18 -5 22 -2
21 18 -4 71 -2 75 53 76 51 1 76 10 52 19 -15 5 -18 23 -4 23 5 0 12 -7 15
-16z m-167 -84 c8 -13 9 -21 2 -25 -14 -9 -39 14 -32 31 7 19 16 18 30 -6z
m-91 -14 c17 -18 18 -28 1 -24 -7 2 -12 -1 -12 -7 0 -5 6 -9 13 -9 6 1 12 -4
12 -12 0 -17 -27 -19 -33 -1 -3 9 -8 9 -21 -2 -9 -8 -19 -11 -23 -7 -3 3 -1 6
5 6 7 0 12 7 12 16 0 17 18 54 26 54 3 0 12 -6 20 -14z m248 -198 c-10 -16
-22 11 -16 35 5 20 5 20 14 -2 4 -13 5 -27 2 -33z m-170 26 c4 -10 1 -14 -6
-12 -15 5 -23 28 -10 28 5 0 13 -7 16 -16z m131 -99 c0 -10 -4 -20 -10 -22
-17 -5 -36 13 -30 29 9 22 40 16 40 -7z m475 -24 c0 -16 -7 -34 -15 -41 -8 -7
-15 -11 -16 -9 -8 37 -8 59 1 59 5 0 10 7 10 16 0 8 5 12 10 9 6 -3 10 -19 10
-34z m-50 -36 c0 -8 -7 -15 -15 -15 -16 0 -20 12 -8 23 11 12 23 8 23 -8z m20
-50 c0 -8 -4 -15 -10 -15 -5 0 -10 7 -10 15 0 8 5 15 10 15 6 0 10 -7 10 -15z
m50 -95 c0 -5 -4 -10 -10 -10 -5 0 -10 5 -10 10 0 6 5 10 10 10 6 0 10 -4 10
-10z"/>
<path d="M2200 4500 c0 -5 5 -10 11 -10 5 0 7 5 4 10 -3 6 -8 10 -11 10 -2 0
-4 -4 -4 -10z"/>
<path d="M2540 4500 c-9 -6 -10 -10 -3 -10 6 0 15 5 18 10 8 12 4 12 -15 0z"/>
<path d="M3880 4486 c0 -8 5 -18 10 -21 6 -3 10 1 10 9 0 8 -4 18 -10 21 -5 3
-10 -1 -10 -9z"/>
<path d="M2335 4457 c-8 -31 -4 -40 18 -35 13 3 13 7 2 33 l-12 30 -8 -28z"/>
<path d="M1892 4450 c0 -14 2 -19 5 -12 2 6 2 18 0 25 -3 6 -5 1 -5 -13z"/>
<path d="M3912 4430 c0 -14 2 -19 5 -12 2 6 2 18 0 25 -3 6 -5 1 -5 -13z"/>
<path d="M3960 4433 c-18 -7 -30 -24 -24 -34 8 -13 42 3 47 22 5 20 2 21 -23
12z"/>
<path d="M2466 4197 c3 -10 9 -15 12 -12 3 3 0 11 -7 18 -10 9 -11 8 -5 -6z"/>
<path d="M2660 4150 c0 -5 5 -10 11 -10 5 0 7 5 4 10 -3 6 -8 10 -11 10 -2 0
-4 -4 -4 -10z"/>
<path d="M2000 4140 c0 -5 5 -10 11 -10 5 0 7 5 4 10 -3 6 -8 10 -11 10 -2 0
-4 -4 -4 -10z"/>
<path d="M2742 4130 c0 -14 2 -19 5 -12 2 6 2 18 0 25 -3 6 -5 1 -5 -13z"/>
<path d="M1950 4113 c0 -13 5 -23 10 -23 13 0 13 11 0 30 -8 12 -10 11 -10 -7z"/>
<path d="M2095 3980 c-3 -6 1 -7 9 -4 18 7 21 14 7 14 -6 0 -13 -4 -16 -10z"/>
<path d="M2290 3893 c0 -13 5 -23 10 -23 13 0 13 11 0 30 -8 12 -10 11 -10 -7z"/>
<path d="M2420 3854 c0 -5 7 -19 15 -30 8 -10 15 -14 15 -8 0 5 -7 19 -15 30
-8 10 -15 14 -15 8z"/>
<path d="M2310 3818 c0 -19 2 -20 10 -8 13 19 13 30 0 30 -5 0 -10 -10 -10
-22z"/>
<path d="M2349 3838 c-7 -21 -3 -48 7 -48 7 0 16 -9 19 -20 3 -11 11 -20 16
-20 5 0 10 -12 10 -27 1 -19 3 -22 6 -10 3 12 10 16 20 13 11 -5 9 3 -7 26
-12 18 -27 45 -33 61 -6 15 -17 27 -24 27 -7 0 -13 -1 -14 -2z"/>
<path d="M2284 3755 c1 -17 7 -25 19 -25 14 0 16 4 7 19 -16 31 -28 33 -26 6z"/>
<path d="M2340 3770 c0 -5 5 -10 10 -10 6 0 10 5 10 10 0 6 -4 10 -10 10 -5 0
-10 -4 -10 -10z"/>
<path d="M2430 3700 c0 -5 5 -10 11 -10 5 0 7 5 4 10 -3 6 -8 10 -11 10 -2 0
-4 -4 -4 -10z"/>
<path d="M2465 3690 c3 -5 8 -10 11 -10 2 0 4 5 4 10 0 6 -5 10 -11 10 -5 0
-7 -4 -4 -10z"/>
<path d="M2160 3670 c0 -5 7 -10 16 -10 8 0 12 5 9 10 -3 6 -10 10 -16 10 -5
0 -9 -4 -9 -10z"/>
<path d="M2394 3580 c0 -13 4 -16 10 -10 7 7 7 13 0 20 -6 6 -10 3 -10 -10z"/>
</g>
</svg>
